<svg height="512" viewBox="0 0 512 512" width="512" xmlns="http://www.w3.org/2000/svg"><path d="m96 408a8 8 0 0 1 -8-8v-280a8 8 0 0 1 16 0v280a8 8 0 0 1 -8 8z" fill="#54795e"/><path d="m136 168a7.98 7.98 0 0 1 -6.515-3.351l-33.485-46.888-33.5 46.883a8 8 0 1 1 -13.015-9.3l40-56c3-4.211 10.015-4.211 13.015 0l40 56a8 8 0 0 1 -6.5 12.656z" fill="#5d8668"/><path d="m136 224a7.98 7.98 0 0 1 -6.515-3.351l-33.485-46.888-33.5 46.883a8 8 0 1 1 -13.015-9.3l40-56c3-4.211 10.015-4.211 13.015 0l40 56a8 8 0 0 1 -6.5 12.656z" fill="#5d8668"/><path d="m136 280a7.98 7.98 0 0 1 -6.515-3.351l-33.485-46.888-33.5 46.883a8 8 0 1 1 -13.015-9.3l40-56c3-4.211 10.015-4.211 13.015 0l40 56a8 8 0 0 1 -6.5 12.656z" fill="#5d8668"/><path d="m136 336a7.981 7.981 0 0 1 -6.515-3.352l-33.485-46.887-33.5 46.883a8 8 0 1 1 -13.015-9.3l40-56c3-4.211 10.015-4.211 13.015 0l40 56a8 8 0 0 1 -6.5 12.656z" fill="#5d8668"/><path d="m79.996 391.996h128.004v56.004h-128.004z" fill="#a45e00"/><path d="m199.997 295.995h256v192h-256z" fill="#d38e14"/><path d="m247.997 335.996h64v64h-64z" fill="#acdee3"/><path d="m424 248a8 8 0 0 1 -8-8v-192a8 8 0 0 1 16 0v192a8 8 0 0 1 -8 8z" fill="#54795e"/><path d="m456 80a7.971 7.971 0 0 1 -5.656-2.344l-26.344-26.348-26.347 26.343a8 8 0 1 1 -11.312-11.312l32-32a8 8 0 0 1 11.312 0l32 32a8 8 0 0 1 -5.653 13.661z" fill="#5d8668"/><path d="m456 120a7.971 7.971 0 0 1 -5.656-2.344l-26.344-26.348-26.344 26.343a8 8 0 1 1 -11.312-11.312l32-32a8 8 0 0 1 11.312 0l32 32a8 8 0 0 1 -5.656 13.661z" fill="#5d8668"/><path d="m456 160a7.971 7.971 0 0 1 -5.656-2.344l-26.344-26.348-26.344 26.343a8 8 0 0 1 -11.312-11.312l32-32a8 8 0 0 1 11.312 0l32 32a8 8 0 0 1 -5.656 13.661z" fill="#5d8668"/><path d="m216 248a8 8 0 0 1 -8-8v-200a8 8 0 0 1 16 0v200a8 8 0 0 1 -8 8z" fill="#54795e"/><path d="m248.005 184a7.988 7.988 0 0 1 -6.664-3.562l-25.341-38.021-25.344 38.016a8 8 0 0 1 -13.313-8.875l32-48c2.969-4.453 10.344-4.453 13.313 0l32 48a8 8 0 0 1 -6.651 12.442z" fill="#5d8668"/><path d="m248.005 136a7.988 7.988 0 0 1 -6.664-3.562l-25.341-38.021-25.344 38.016a8 8 0 0 1 -13.313-8.875l32-48c2.969-4.454 10.344-4.454 13.313 0l32 48a8 8 0 0 1 -6.651 12.442z" fill="#5d8668"/><path d="m248.005 80a7.988 7.988 0 0 1 -6.664-3.562l-25.341-38.021-25.347 38.016a8 8 0 0 1 -13.313-8.875l32-48c2.969-4.453 10.344-4.453 13.313 0l32 48a8 8 0 0 1 -6.648 12.442z" fill="#5d8668"/><path d="m327.997 151.995-160 120v24h320v-24z" fill="#dededc"/><path d="m167.997 295.995h320l-160-120z" fill="#a87211"/><path d="m327.997 191.995-136 104v8h272v-8z" fill="#c48412"/><path d="m303.997 263.995h48v32h-48z" fill="#95650f"/><path d="m303.997 263.995h40v16h-40z" fill="#a06c10"/><path d="m223.381 271.995h209.231l-20.923-16h-167.385z" fill="#a87211"/><path d="m265.228 239.995h125.538l-20.923-16h-83.692z" fill="#a87211"/><path d="m55.996 439.996h144v48h-144z" fill="#995701"/><path d="m55.996 439.996h48v48h-48z" fill="#844b02"/><path d="m352 400h-40a8 8 0 1 1 0-16h40a8 8 0 0 1 0 16z" fill="#a87211"/><path d="m352 368h-40a8 8 0 1 1 0-16h40a8 8 0 0 1 0 16z" fill="#a87211"/><path d="m343.997 327.996h64v128h-64z" fill="#de4c3b"/><g fill="#a87211"><path d="m199.997 447.996h256v16h-256z"/><path d="m199.997 479.996h256v8h-256z"/><path d="m199.997 415.996h144v16h-144z"/><path d="m199.997 383.996h48v16h-48z"/><path d="m407.997 383.996h48v16h-48z"/><path d="m407.997 415.996h48v16h-48z"/><path d="m199.997 351.996h48v16h-48z"/><path d="m407.997 351.996h48v16h-48z"/><path d="m199.997 319.996h256v16h-256z"/></g><circle cx="55.996" cy="463.996" fill="#f7bb8f" r="24"/><circle cx="103.997" cy="463.996" fill="#f7bb8f" r="24"/><circle cx="79.996" cy="415.996" fill="#fec9a3" r="24"/><path d="m200 424h-64a8 8 0 0 1 0-16h64a8 8 0 0 1 0 16z" fill="#995701"/><path d="m192 472h-32a8 8 0 1 1 0-16h32a8 8 0 0 1 0 16z" fill="#844b02"/><circle cx="199.997" cy="471.996" fill="#ec9e15" r="16"/><circle cx="199.997" cy="439.996" fill="#ec9e15" r="16"/><circle cx="199.997" cy="407.996" fill="#ec9e15" r="16"/><circle cx="199.997" cy="375.996" fill="#ec9e15" r="16"/><circle cx="199.997" cy="343.996" fill="#ec9e15" r="16"/><circle cx="455.997" cy="407.996" fill="#ec9e15" r="16"/><circle cx="455.997" cy="375.996" fill="#ec9e15" r="16"/><circle cx="455.997" cy="343.996" fill="#ec9e15" r="16"/><path d="m311.997 447.996h136.003v40h-136.003z" fill="#a87211"/><path d="m311.997 447.996h144.003v16h-144.003z" fill="#bf8012"/><path d="m240 328v80h80v-80zm64 32h-16v-16h16zm-32-16v16h-16v-16zm-16 32h16v16h-16zm32 16v-16h16v16z" fill="#de4c3b"/><path d="m239.997 335.996h72v72h8v-72-8h-8-72z" fill="#c94536"/><path d="m399.997 335.996h-56v8h56v104h8v-104-8z" fill="#c94536"/><path d="m191.997 295.995h272v24h-272z" fill="#d38e14"/><path d="m191.997 287.995h272v16h-272z" fill="#a87211"/><circle cx="199.997" cy="311.996" fill="#ec9e15" r="16"/><circle cx="455.997" cy="311.996" fill="#ec9e15" r="16"/><circle cx="455.997" cy="471.996" fill="#ec9e15" r="16"/><circle cx="455.997" cy="439.996" fill="#ec9e15" r="16"/></svg>