<?xml version="1.0" encoding="iso-8859-1"?>
<!-- Generator: Adobe Illustrator 19.0.0, SVG Export Plug-In . SVG Version: 6.00 Build 0)  -->
<svg version="1.1" id="Layer_1" xmlns="http://www.w3.org/2000/svg" xmlns:xlink="http://www.w3.org/1999/xlink" x="0px" y="0px"
	 viewBox="0 0 512 512" style="enable-background:new 0 0 512 512;" xml:space="preserve">
<g>
	<circle style="fill:#CDCCCA;" cx="256" cy="256" r="256"/>
	<circle style="fill:#E8E9EC;" cx="256" cy="256" r="203.503"/>
	<path style="fill:#323232;" d="M308.493,107.826c-72.378,0-131.054,90.738-131.054,202.668h262.108
		C439.548,198.564,380.872,107.826,308.493,107.826z"/>
	<path style="fill:#494A4A;" d="M171.74,156.836c-54.876,0-99.363,68.795-99.363,153.658h198.728
		C271.104,225.631,226.617,156.836,171.74,156.836z"/>
	<path style="fill:#EDC849;" d="M72.377,310.494C95.851,389.709,169.17,447.504,256,447.504s160.149-57.795,183.623-137.01
		L72.377,310.494L72.377,310.494z"/>
	<path style="fill:#DDAE2A;" d="M177.439,328.184c0,3.313-2.687,6-6,6h-65.894c-3.313,0-6-2.688-6-6l0,0c0-3.314,2.687-6,6-6h65.894
		C174.753,322.184,177.439,324.869,177.439,328.184L177.439,328.184z"/>
	<path style="fill:#DDAE2A;" d="M218.489,358.047c0,4.061-3.292,7.354-7.352,7.354h-80.74c-4.06,0-7.352-3.293-7.352-7.354l0,0
		c0-4.057,3.292-7.352,7.352-7.352h80.74C215.197,350.695,218.489,353.99,218.489,358.047L218.489,358.047z"/>
	<path style="fill:#DDAE2A;" d="M307.059,386.35c0,4.061-3.292,7.354-7.352,7.354h-80.74c-4.06,0-7.352-3.293-7.352-7.354l0,0
		c0-4.059,3.292-7.352,7.352-7.352h80.74C303.767,378.998,307.059,382.291,307.059,386.35L307.059,386.35z"/>
	<path style="fill:#DDAE2A;" d="M251.355,413.35c0,2.797-2.267,5.064-5.063,5.064h-55.607c-2.796,0-5.063-2.268-5.063-5.064l0,0
		c0-2.795,2.267-5.063,5.063-5.063h55.607C249.089,408.287,251.355,410.555,251.355,413.35L251.355,413.35z"/>
	<path style="fill:#DDAE2A;" d="M328.022,425.684c0,2.57-2.083,4.652-4.651,4.652h-51.098c-2.568,0-4.651-2.082-4.651-4.652l0,0
		c0-2.568,2.083-4.652,4.651-4.652h51.098C325.939,421.031,328.022,423.115,328.022,425.684L328.022,425.684z"/>
	<path style="fill:#DDAE2A;" d="M342.601,340.684c0,4.061-3.292,7.352-7.352,7.352h-80.74c-4.06,0-7.352-3.291-7.352-7.352l0,0
		c0-4.059,3.292-7.352,7.352-7.352h80.74C339.309,333.332,342.601,336.625,342.601,340.684L342.601,340.684z"/>
	<path style="fill:#DDAE2A;" d="M376.569,362.314c0,2.355-1.91,4.268-4.266,4.268h-46.851c-2.355,0-4.266-1.912-4.266-4.268l0,0
		c0-2.354,1.91-4.266,4.266-4.266h46.851C374.659,358.049,376.569,359.961,376.569,362.314L376.569,362.314z"/>
	<path style="fill:#DDAE2A;" d="M235.665,330.355c0,2.357-1.91,4.266-4.266,4.266h-46.851c-2.355,0-4.266-1.908-4.266-4.266l0,0
		c0-2.355,1.91-4.266,4.266-4.266h46.851C233.755,326.09,235.665,328,235.665,330.355L235.665,330.355z"/>
	<path style="fill:#1B9D7E;" d="M427.647,289.074h7.287l-11.428-19.797h6.348l-9.917-17.18h4.839l-12.697-21.992l-12.698,21.993
		h4.839l-9.918,17.18h6.348l-10.84,18.779l-10.841-18.779h6.349l-9.918-17.18h4.839l-12.697-21.992l-12.699,21.992h4.839
		l-9.918,17.18h6.349l-10.84,18.779l-10.842-18.779h6.348l-9.917-17.18h4.839l-12.697-21.992l-12.699,21.992h4.839l-9.918,17.18
		h6.348l-10.84,18.779l-10.841-18.779h6.349l-9.918-17.18h4.839l-12.697-21.992l-12.699,21.992h4.839l-9.918,17.18h6.349
		l-10.84,18.779l-10.842-18.779h6.349l-9.918-17.18h4.839l-12.697-21.992l-12.699,21.992h4.839l-9.918,17.18h6.349l-10.841,18.779
		l-10.841-18.779h6.349l-9.918-17.18h4.839l-12.697-21.992l-12.7,21.992h4.839l-9.917,17.18h6.348l-10.84,18.779l-10.842-18.779
		h6.349l-9.918-17.18h4.839l-12.697-21.992l-12.699,21.992h4.839l-9.918,17.18h6.349l-10.84,18.779l-10.841-18.779h6.348
		l-9.918-17.18h4.839l-12.697-21.992l-12.699,21.992h4.839l-9.917,17.18h6.348l-11.428,19.797h7.287l-12.366,21.42h44.538h11.332
		h33.206h11.333h33.205h11.332h33.206h11.332h33.206h11.332h33.205h11.333h33.206h11.332h44.538L427.647,289.074z M122.582,300.68
		l-6.7-11.605h6.112h1.175h6.112L122.582,300.68z M167.12,300.68l-6.7-11.605h6.112h1.175h6.112L167.12,300.68z M211.657,300.68
		l-6.699-11.605h6.111h1.176h6.111L211.657,300.68z M256.196,300.68l-6.701-11.605h6.113h1.174h6.113L256.196,300.68z
		 M300.733,300.68l-6.699-11.605h6.111h1.176h6.111L300.733,300.68z M345.272,300.68l-6.701-11.605h6.112h1.175h6.112
		L345.272,300.68z M389.81,300.68l-6.7-11.605h6.112h1.175h6.112L389.81,300.68z"/>
	<rect x="284.054" y="276.391" style="fill:#323232;" width="8.074" height="64.293"/>
	<polygon style="fill:#3AB49C;" points="319.808,308.537 305.768,284.217 314.041,284.217 301.066,261.742 308.275,261.742 
		297.014,242.234 302.508,242.234 288.091,217.266 273.674,242.234 279.169,242.234 267.906,261.742 275.115,261.742 
		262.141,284.217 270.414,284.217 256.374,308.537 	"/>
	<rect x="217.928" y="275.885" style="fill:#323232;" width="5.385" height="42.883"/>
	<polygon style="fill:#3AB49C;" points="241.775,297.326 232.41,281.105 237.928,281.105 229.274,266.115 234.083,266.115 
		226.572,253.103 230.236,253.103 220.62,236.449 211.004,253.103 214.67,253.103 207.157,266.115 211.966,266.115 203.313,281.105 
		208.831,281.105 199.466,297.326 	"/>
	<rect x="98.066" y="224.103" style="fill:#323232;" width="17.16" height="136.648"/>
	<path style="fill:#3AB49C;" d="M144.218,240.736h17.586l-27.577-47.77h15.32l-23.936-41.459h11.678l-17.772-30.781
		c-20.015,20.193-35.574,44.805-45.097,72.24h4.646l-9.569,16.576c-2.509,10.105-4.226,20.525-5.063,31.193h4.641l-5.127,8.881
		c-0.069,2.121-0.117,4.246-0.117,6.383c0,12.457,1.199,24.631,3.463,36.428H174.06L144.218,240.736z"/>
	<rect x="388.97" y="211.443" style="fill:#323232;" width="19.658" height="156.547"/>
	<path style="fill:#3AB49C;" d="M445.219,289.717c1.938-10.947,2.951-22.213,2.951-33.717c0-5.268-0.221-10.484-0.637-15.645
		l-5.69-9.857h4.64c-2.451-18.484-7.529-36.137-14.847-52.574l-1.243-2.154h0.268c-12.514-27.197-31.191-50.967-54.245-69.527
		l-12.721,22.033h13.378l-27.42,47.494h17.553l-31.595,54.728h20.144l-34.186,59.219H445.219z"/>
</g>
<g>
</g>
<g>
</g>
<g>
</g>
<g>
</g>
<g>
</g>
<g>
</g>
<g>
</g>
<g>
</g>
<g>
</g>
<g>
</g>
<g>
</g>
<g>
</g>
<g>
</g>
<g>
</g>
<g>
</g>
</svg>
